<svg xmlns="http://www.w3.org/2000/svg" width="256" height="256" viewBox="0 0 100 100"><rect width="100" height="100" rx="20" fill="#252a34"></rect><path fill="#fff" d="M50.36 25L50.36 25Q40.36 21.88 30.68 21.88L30.68 21.88Q26.12 21.88 21.96 22.68L21.96 22.68Q18.68 23.56 16.88 25.44Q15.08 27.32 15.08 28.28Q15.08 29.24 15.40 29.88Q15.72 30.52 15.72 30.96Q15.72 31.40 15.36 31.32Q15.00 31.24 14.12 30.16Q13.24 29.08 13.24 27.52Q13.24 25.96 14.36 24.28L14.36 24.28Q16.68 20.84 20.68 19.48Q24.68 18.12 30.52 18.12L30.52 18.12Q39.72 18.12 53.16 21.56L53.16 21.56Q55 19.72 57.04 18.88Q59.08 18.04 60.20 18.04Q61.32 18.04 61.80 19.48L61.80 19.48Q61.80 19.72 61.80 19.88L61.80 19.88Q61.80 22.68 59.20 24.32Q56.60 25.96 54.52 25.96L54.52 25.96Q53.80 25.96 53.16 25.80L53.16 25.80Q51.24 26.84 49.76 28.16Q48.28 29.48 47.48 30.16Q46.68 30.84 45.40 32.16Q44.12 33.48 43.48 34.16Q42.84 34.84 41.36 36.48Q39.88 38.12 39.32 38.68L39.32 38.68Q36.76 41.48 35.16 43.48L35.16 43.48Q42.12 42.92 44.04 42.92Q45.96 42.92 46.44 42.92Q46.92 42.92 47.40 43.04Q47.88 43.16 48.12 43.32L48.12 43.32Q48.68 43.80 46.44 44.60L46.44 44.60Q43 45.56 32.60 46.28L32.60 46.28L28.84 50.28Q20.84 58.44 14.44 62.12L14.44 62.12Q13.88 62.68 13.88 63.28Q13.88 63.88 14.84 64.52L14.84 64.52Q17.08 65.72 22.88 69.08Q28.68 72.44 31.80 73.96Q34.92 75.48 39.24 76.68Q43.56 77.88 45.80 77.88Q48.04 77.88 49.16 77.72L49.16 77.72Q53.08 77.16 55.48 74.52L55.48 74.52Q56.60 73.24 56.60 71.56Q56.60 69.88 55.24 67.72L55.24 67.72Q54.68 66.68 55.32 66.56Q55.96 66.44 56.52 67.40L56.52 67.40Q58.12 69.96 58.76 73.80L58.76 73.80Q58.84 74.28 58.84 74.84L58.84 74.84Q58.84 77.24 57 79.40L57 79.40Q54.84 81.96 49.68 81.96Q44.52 81.96 39.08 80.12Q33.64 78.28 29.24 75.40L29.24 75.40Q15.32 66.44 10.36 64.60L10.36 64.60Q7.72 65.96 6.68 65.96L6.68 65.96Q3.64 65.96 3.64 63.40L3.64 63.40Q3.64 61.88 5.32 61.08L5.32 61.08Q6.12 61 7.76 61.36Q9.40 61.72 10.20 61.80L10.20 61.80Q15.48 59.96 27.96 46.60L27.96 46.60Q24.12 46.84 22.84 46.84Q21.56 46.84 21.04 46.80Q20.52 46.76 19.84 46.12Q19.16 45.48 19.16 44.52Q19.16 43.56 20.76 42.88Q22.36 42.20 22.92 42.20Q23.48 42.20 23.88 42.20Q24.28 42.20 24.92 43Q25.56 43.80 25.80 43.80L25.80 43.80Q27.00 43.88 28.20 43.88Q29.40 43.88 30.52 43.80L30.52 43.80Q31.48 42.76 33.64 40.44L33.64 40.44L36.92 36.92Q45.64 27.56 50.36 25ZM96.36 22.68L96.36 22.68Q96.36 24.44 94.92 26.76L94.92 26.76Q93.72 28.92 92.24 29.72Q90.76 30.52 90.76 29.56L90.76 29.56Q90.76 29.48 91.64 28.60L91.64 28.60Q94.28 26.12 94.28 24.52L94.28 24.52Q94.28 21.08 87.48 21.08L87.48 21.08Q84.60 21.08 79.88 22.16Q75.16 23.24 70.76 25.64L70.76 25.64Q65.64 28.44 65.64 30.52L65.64 30.52Q65.64 32.20 68.76 33.72L68.76 33.72Q70.44 34.52 75.44 36.40Q80.44 38.28 83.52 39.68Q86.60 41.08 89.36 43.64Q92.12 46.20 92.12 49.32Q92.12 52.44 88.44 56.12L88.44 56.12Q82.84 61.48 73.88 65.04Q64.92 68.60 58.52 68.60L58.52 68.60Q45.88 68.60 45.88 61.48Q45.88 54.36 53.64 49.40L53.64 49.40Q60.04 45 67.08 45L67.08 45Q68.76 45 68.60 45.56L68.60 45.56Q68.44 46.12 66.20 46.16Q63.96 46.20 60.44 47.68Q56.92 49.16 53.88 51.96L53.88 51.96Q49.88 55.56 49.88 59.16L49.88 59.16Q49.88 61.40 52.04 63.16Q54.20 64.92 60.28 64.92Q66.36 64.92 72.28 63L72.28 63Q85.08 58.76 88.28 53.72L88.28 53.72Q89.56 51.88 89.56 50.60L89.56 50.60Q89.56 46.92 85.08 44.84L85.08 44.84Q79.88 42.44 70.52 39.32L70.52 39.32Q66.92 38.12 64.40 36.16Q61.88 34.20 61.88 31.44Q61.88 28.68 64.88 26Q67.88 23.32 72.12 21.72L72.12 21.72Q81.24 18.28 87.56 18.28L87.56 18.28Q96.36 18.28 96.36 22.68Z"></path></svg>